<?xml version="1.0" standalone="no"?><svg xmlns="http://www.w3.org/2000/svg" viewBox="0 0 1440 320"><path fill="#ecfeff" fill-opacity="1" d="M0,64L24,96C48,128,96,192,144,202.7C192,213,240,171,288,149.3C336,128,384,128,432,138.7C480,149,528,171,576,186.7C624,203,672,213,720,208C768,203,816,181,864,149.3C912,117,960,75,1008,53.3C1056,32,1104,32,1152,74.7C1200,117,1248,203,1296,224C1344,245,1392,203,1416,181.3L1440,160L1440,320L1416,320C1392,320,1344,320,1296,320C1248,320,1200,320,1152,320C1104,320,1056,320,1008,320C960,320,912,320,864,320C816,320,768,320,720,320C672,320,624,320,576,320C528,320,480,320,432,320C384,320,336,320,288,320C240,320,192,320,144,320C96,320,48,320,24,320L0,320Z" data-darkreader-inline-fill="" style="--darkreader-inline-fill:#003b3e;"></path></svg>